<svg viewBox="0 0 20 20" xmlns="http://www.w3.org/2000/svg">
  <path fill-rule="evenodd" clip-rule="evenodd" d="M8.10764 13.2471V19.4685C8.10916 19.5437 8.09379 19.6183 8.06266 19.6868C8.03154 19.7553 7.98546 19.8159 7.92784 19.864C7.87022 19.9122 7.80253 19.9468 7.72979 19.9652C7.65706 19.9835 7.58113 19.9852 7.50764 19.9702H2.90764C2.50895 19.9726 2.11406 19.8923 1.74782 19.7341C1.38157 19.576 1.05189 19.3436 0.779516 19.0514C0.507138 18.7592 0.297953 18.4137 0.165117 18.0365C0.0322798 17.6592 -0.021335 17.2585 0.00764402 16.8595V2.9117C0.0205594 2.51631 0.111014 2.12735 0.273837 1.76707C0.436659 1.40678 0.668656 1.08223 0.956562 0.811969C1.24447 0.541711 1.58264 0.331045 1.95174 0.192018C2.32084 0.0529909 2.71362 -0.0116718 3.10764 0.00172728H7.50764C7.66924 0.0250598 7.82088 0.0940666 7.94484 0.200681C8.0688 0.307296 8.15995 0.447114 8.20764 0.603791V6.92546C8.19609 7.08129 8.12917 7.22779 8.01905 7.33828C7.90894 7.44878 7.76294 7.51593 7.60764 7.52752H3.20764C3.21279 7.20978 3.34088 6.9065 3.56481 6.68179C3.78875 6.45709 4.09099 6.32856 4.40764 6.3234H6.80764V1.3062H2.90764C2.44521 1.32449 2.00832 1.52379 1.69055 1.8614C1.37279 2.19902 1.19944 2.64808 1.20764 3.11239V17.1605C1.21911 17.3983 1.27755 17.6314 1.37958 17.8463C1.48162 18.0612 1.6252 18.2536 1.80199 18.4123C1.97878 18.571 2.18525 18.6929 2.40939 18.7709C2.63354 18.8488 2.87089 18.8813 3.10764 18.8664H6.80764V13.8492H4.30764C3.99099 13.844 3.68875 13.7155 3.46481 13.4908C3.24088 13.2661 3.11279 12.9628 3.10764 12.6451H7.50764C7.66294 12.6567 7.80894 12.7238 7.91905 12.8343C8.02917 12.9448 8.09609 13.0913 8.10764 13.2471ZM9.40765 9.43402H17.9077L15.8077 7.42714L16.7077 6.52405L19.8077 9.63471C19.905 9.76498 19.9577 9.92342 19.9577 10.0863C19.9577 10.2491 19.905 10.4075 19.8077 10.5378L16.7077 13.6485L15.8077 12.7454L17.9077 10.6381H9.40765V9.43402Z" />
</svg>
