<svg viewBox="0 0 90 105" fill="none" xmlns="http://www.w3.org/2000/svg">
  <path fill-rule="evenodd" clip-rule="evenodd" d="M86.0559 63.4504C88.59 57.8202 90 51.5748 90 45C90 20.1472 69.8528 0 45 0C20.1472 0 0 20.1472 0 45C0 69.8528 20.1472 90 45 90C45.3342 90 45.6675 89.9964 46 89.9891V104.082L46.8241 103.381C48.2323 102.182 49.9613 100.717 51.8733 99.0975L51.8864 99.0863C60.5848 91.7166 73.0605 81.1466 76.3536 77.8536C78.3859 75.8212 82.1635 71.0347 84.4358 66.9951C85.0055 65.9824 85.4867 65.0058 85.8227 64.1232C85.9096 63.895 85.9879 63.6702 86.0559 63.4504Z" fill="white" />
  <path d="M67.8825 33.6598C66.1585 29.5626 63.3821 25.9852 59.83 23.284C56.2778 20.5827 52.074 18.852 47.6374 18.2643C43.2008 17.6766 38.6864 18.2525 34.5441 19.9345C30.4017 21.6165 26.7762 24.3459 24.0287 27.8507C21.2812 31.3556 19.5077 35.5134 18.885 39.9098C18.2622 44.3063 18.812 48.7879 20.4795 52.9079C22.147 57.028 24.874 60.6426 28.3887 63.3917C31.9034 66.1407 36.083 67.9281 40.5111 68.5757C39.9311 66.5026 39.3411 64.2112 38.8211 61.781C40.3339 62.7544 41.9262 63.6005 43.5813 64.3104V64.3104C43.5813 64.3104 43.7013 66.453 43.8613 68.8435C45.6496 68.8741 47.4362 68.7178 49.1916 68.3773C49.1462 68.128 49.1462 67.8727 49.1916 67.6235C49.4816 65.7685 50.2816 62.4257 50.4416 60.2733C51.595 59.2032 52.5734 57.9617 53.3418 56.5932V56.5932L53.2818 57.0296C52.7317 61.2553 51.5817 65.7685 50.8817 67.0184C50.655 67.4321 50.3761 67.8154 50.0516 68.1591C53.6716 67.3168 57.0636 65.7036 59.9924 63.4315C62.9212 61.1594 65.3168 58.2826 67.013 55.0007C68.7093 51.7188 69.6656 48.1102 69.8158 44.4252C69.9659 40.7401 69.3062 37.0668 67.8825 33.6598V33.6598ZM66.4124 37.4192C65.9724 37.8457 65.0624 38.1334 64.9123 36.8439C64.7623 35.5544 64.7223 34.6517 64.7223 34.6517C64.7223 34.6517 62.7922 31.2494 62.0722 31.2097C61.3522 31.17 56.2419 34.6517 54.8919 36.1694C53.7218 37.4489 53.4918 37.3597 53.4918 39.6113C53.4918 41.3075 53.7118 47.7154 53.5918 52.6156L45.4414 54.768C42.8796 55.4973 40.2744 56.0671 37.641 56.4742L36.6409 50.6912H36.5009L33.9308 37.6275C33.9308 37.6275 30.1206 36.1991 28.7206 35.8123C28.0632 35.527 27.3372 35.4342 26.6284 35.545C25.9196 35.6557 25.2575 35.9653 24.7204 36.4372C24.1723 36.9131 23.7342 37.5006 23.4356 38.1596C23.1371 38.8186 22.9852 39.5336 22.9903 40.2561C23.2017 40.7171 23.3626 41.1993 23.4703 41.6944C23.5203 42.1705 22.2702 42.1209 21.4702 42.1209C20.6702 42.1209 20.5502 40.6926 21.1802 39.0162C21.6717 37.7272 22.2809 36.4854 23.0003 35.3064C23.5413 34.2532 24.2392 33.2868 25.0704 32.4397C25.0704 32.4397 25.2104 32.1024 26.3204 32.2016C27.4305 32.3008 33.6008 32.6282 33.6008 32.6282L33.6508 30.3765C40.3575 29.458 47.1216 29.0138 53.8918 29.0473C53.8918 29.6524 53.8918 30.2574 53.8918 30.8625C56.4562 29.7018 59.2175 29.0288 62.0322 28.8787C62.1828 28.8749 62.332 28.9083 62.4664 28.9758C62.6008 29.0433 62.7162 29.1429 62.8022 29.2655C63.1423 29.692 65.2124 32.2413 65.4524 32.6083C66.1246 33.5613 66.7359 34.5552 67.2825 35.5841C67.0951 36.2356 66.8012 36.8522 66.4124 37.4093V37.4192Z" fill="#FDC305" />
  <path d="M64.4628 31.3487C64.9329 31.9438 65.3429 32.4696 65.4629 32.6283C66.1351 33.5812 66.7464 34.5751 67.293 35.6041C67.1027 36.2342 66.8124 36.8302 66.4329 37.3697C65.9929 37.7962 65.0829 38.0839 64.9329 36.7944C64.7829 35.5049 64.7229 34.6518 64.7229 34.6518C64.7229 34.6518 62.7928 31.2495 62.0727 31.2098C61.3527 31.1701 56.2424 34.6518 54.8924 36.1695C53.7223 37.449 53.4923 37.3598 53.4923 39.6115C53.4923 41.0993 53.6623 46.2078 53.6223 50.7508C55.4324 50.9492 58.0925 51.4452 58.8926 52.6157C58.8926 52.6157 58.6026 45.4936 66.703 49.2233C66.703 49.2233 66.983 39.5123 78.1635 42.002C74.3628 37.5759 69.7035 33.953 64.4628 31.3487V31.3487Z" fill="#F06351" />
  <path d="M53.9323 29.0473C53.9729 23.5508 53.5043 18.0622 52.5322 12.6507C52.5322 12.6507 52.3822 11.3612 51.6622 12.4127C51.068 13.6697 50.6636 15.0066 50.4621 16.3804C46.1871 16.1083 41.896 16.2212 37.6415 16.7177C36.8214 13.9898 35.4214 12.7499 34.7513 13.0773C34.0813 13.4046 34.0013 16.3308 34.0013 16.3308L33.6713 30.3765C40.3846 29.4571 47.1554 29.0129 53.9323 29.0473V29.0473Z" fill="#F06351" />
  <path d="M53.3515 56.5933C53.4815 55.5319 53.5515 54.1234 53.5915 52.566L45.4415 54.7185C42.8809 55.4645 40.2758 56.0509 37.6415 56.4742L38.7515 61.4339C38.7515 61.543 38.7515 61.6521 38.8215 61.7612C40.3342 62.7346 41.9265 63.5807 43.5815 64.2907C46.0002 63.1438 48.3038 61.7721 50.4615 60.194V60.2535C51.6096 59.1888 52.5845 57.954 53.3515 56.5933V56.5933Z" fill="#E55645" />
  <path d="M40.0016 25.9426C39.9516 25.8434 41.0016 26.6171 41.4116 26.8551C41.8216 27.0932 42.0216 27.2718 42.0216 27.4404C42.0216 27.609 41.7616 27.7776 41.4016 27.7776C41.0416 27.7776 40.4816 27.6586 40.4016 27.5197C40.3216 27.3809 41.0016 27.5197 41.3416 27.5197H41.6316C41.0159 27.073 40.4672 26.542 40.0016 25.9426Z" fill="black" />
  <path d="M47.502 26.0517C47.502 26.0517 46.502 27.3213 46.412 27.3809C46.322 27.4404 46.2419 27.7181 46.6019 27.6685C47.0152 27.6073 47.4231 27.5145 47.8219 27.3908C47.9319 27.3313 47.892 27.1924 47.702 27.2122C47.512 27.2321 47.022 27.2618 46.702 27.3213L47.5519 26.0616C47.5519 26.0616 47.582 25.9426 47.502 26.0517Z" fill="black" />
  <path d="M44.3617 32.1124C44.8253 31.9099 45.2084 31.5612 45.4517 31.1205C45.7317 30.4658 45.4517 30.2179 45.0117 30.1286C44.4064 30.019 43.7817 30.1394 43.2617 30.4658C42.8717 30.8329 42.9217 31.19 43.2617 31.4578C43.5995 31.7205 43.9691 31.9405 44.3617 32.1124V32.1124Z" fill="black" />
  <path d="M44.0016 33.3623C43.8868 33.5873 43.7308 33.7891 43.5416 33.9575C43.2568 34.1848 42.9067 34.3167 42.5416 34.3344C41.991 34.388 41.4405 34.232 41.0016 33.898C40.8 33.781 40.6206 33.6299 40.4716 33.4516C40.3715 33.3435 40.2486 33.2589 40.1116 33.2036C40.1116 33.2036 40.8616 37.2804 42.6816 37.9351C44.5016 38.5898 44.8416 37.1813 44.8916 36.8043C44.9525 35.6754 44.6666 34.5547 44.0716 33.5905C44.0716 33.2929 44.0516 33.4913 44.0016 33.3623Z" fill="#F06351" />
  <path d="M42.3015 34.493C41.8335 34.4263 41.384 34.2662 40.9801 34.0224C40.5763 33.7786 40.2263 33.4562 39.9515 33.0746C39.9269 33.0473 39.9133 33.012 39.9133 32.9754C39.9133 32.9388 39.9269 32.9035 39.9515 32.8762C39.9646 32.863 39.9801 32.8525 39.9973 32.8454C40.0145 32.8382 40.0329 32.8345 40.0515 32.8345C40.0702 32.8345 40.0886 32.8382 40.1058 32.8454C40.1229 32.8525 40.1385 32.863 40.1515 32.8762C40.399 33.2206 40.7129 33.5127 41.0751 33.7358C41.4374 33.9589 41.8406 34.1084 42.2615 34.1756C42.5945 34.1508 42.9168 34.0479 43.2019 33.8755C43.487 33.7031 43.7268 33.466 43.9015 33.1837L44.0415 32.9952L44.1415 33.2134C44.1415 33.2134 44.5215 33.9673 45.1415 34.007C45.7615 34.0467 46.2015 33.5904 46.7715 32.7274C46.7927 32.6958 46.8257 32.6739 46.8632 32.6665C46.9007 32.659 46.9397 32.6667 46.9715 32.6877C47.0034 32.7088 47.0254 32.7415 47.0329 32.7787C47.0404 32.8159 47.0327 32.8545 47.0115 32.8861C46.3449 33.8582 45.7149 34.3244 45.1215 34.2847C44.8922 34.2546 44.6726 34.1739 44.4788 34.0486C44.285 33.9233 44.1219 33.7566 44.0015 33.5606C43.8059 33.8316 43.5518 34.056 43.2577 34.2172C42.9636 34.3785 42.6369 34.4728 42.3015 34.493Z" fill="black" />
  <path d="M44.2616 47.8445C46.3327 47.8445 48.0116 46.1791 48.0116 44.1248C48.0116 42.0704 46.3327 40.405 44.2616 40.405C42.1905 40.405 40.5116 42.0704 40.5116 44.1248C40.5116 46.1791 42.1905 47.8445 44.2616 47.8445Z" fill="#FDC305" />
  <path d="M49.2316 41.0993L46.1016 42.3988L47.2516 36.8142L39.7516 46.4954L42.8816 45.196L41.7316 50.7905L49.2316 41.0993ZM41.8416 44.8984L46.0016 39.5321L45.1916 43.4998L47.1916 42.6864L43.0016 48.0627L43.8116 44.095L41.8416 44.8984Z" fill="#111111" />
  <path d="M40.4415 43.4402C41.0601 43.4402 41.5615 42.9428 41.5615 42.3292C41.5615 41.7157 41.0601 41.2183 40.4415 41.2183C39.823 41.2183 39.3215 41.7157 39.3215 42.3292C39.3215 42.9428 39.823 43.4402 40.4415 43.4402Z" fill="#111111" />
  <path d="M46.9619 47.4675C47.3982 47.4675 47.7519 47.1167 47.7519 46.6839C47.7519 46.2511 47.3982 45.9003 46.9619 45.9003C46.5256 45.9003 46.1719 46.2511 46.1719 46.6839C46.1719 47.1167 46.5256 47.4675 46.9619 47.4675Z" fill="#111111" />
  <path d="M47.9219 45.315C48.1152 45.315 48.2719 45.1595 48.2719 44.9678C48.2719 44.776 48.1152 44.6206 47.9219 44.6206C47.7286 44.6206 47.5719 44.776 47.5719 44.9678C47.5719 45.1595 47.7286 45.315 47.9219 45.315Z" fill="#111111" />
  <path d="M53.8822 30.8427C52.077 32.4568 50.3768 34.183 48.792 36.0107C47.2133 37.8252 45.4318 39.4558 43.4817 40.8711C43.2617 40.3454 41.8516 39.3634 41.8516 39.3634C41.8516 39.3634 38.7115 37.2307 36.6514 35.5544C35.5377 34.6343 34.4886 33.6401 33.5112 32.5786L31.5111 32.4695C34.3983 36.6526 38.628 39.7432 43.5117 41.2381C44.3717 41.0993 46.7919 39.3832 48.602 37.9846C50.7434 36.1782 52.7489 34.2189 54.6022 32.1223C55.1004 31.535 55.4867 30.8628 55.7423 30.1384C54.6023 30.5154 53.8822 30.8427 53.8822 30.8427Z" fill="#F06351" />
  <path d="M33.9313 37.6275C33.9313 37.6275 30.1211 36.1991 28.721 35.8123C28.0636 35.527 27.3377 35.4343 26.6289 35.545C25.9201 35.6557 25.258 35.9653 24.7208 36.4372C24.1728 36.9131 23.7346 37.5006 23.4361 38.1596C23.1375 38.8186 22.9856 39.5337 22.9907 40.2561C23.2021 40.7172 23.3631 41.1993 23.4708 41.6944C23.5208 42.1706 22.2707 42.121 21.4707 42.121C20.6706 42.121 20.5506 40.6926 21.1807 39.0162C21.6722 37.7272 22.2814 36.4854 23.0007 35.3064C17.5505 38.1235 8 44.6305 8 44.6305C10.7318 44.4671 13.4729 44.5468 16.1904 44.8686C21.4407 45.3943 21.1907 49.5009 21.1907 49.5009C23.0373 48.996 24.9192 48.6279 26.8209 48.3999C28.941 48.261 29.091 50.5028 29.091 50.5028L29.6211 54.3316C30.4259 53.4679 31.3134 52.6839 32.2712 51.9907C33.5057 51.0104 35.0776 50.5477 36.6514 50.7012V50.7012L33.9313 37.6275Z" fill="#F06351" />
</svg>
