<svg xmlns="http://www.w3.org/2000/svg" xmlns:xlink="http://www.w3.org/1999/xlink"><symbol id="academy" viewBox="0 0 27 34">
  <path d="M13.6426 0.0157537L13.5 0L0 1.40733V26.0129L13.5 34L27 26.0129V1.40733L13.6426 0.0157537ZM25.2344 25.0151L13.5 31.9573L1.76561 25.0151V14.9293L13.4507 21.8451L13.4701 23.0984L5.45351 18.3548L5.44295 19.5801L13.4894 24.3885L13.5088 25.675L5.46408 20.9174L5.45351 22.1427L13.5 26.9511L21.6239 22.1182V20.8929V16.909L25.2432 14.7595L25.2344 25.0151ZM25.2344 13.4519L22.0147 15.3319L20.5325 16.2071L13.4666 12.0201L13.456 13.2454L19.4957 16.818L19.4429 16.8495L19.3126 16.9247L18.4536 17.4166L13.4666 14.4689L13.456 15.6942L17.3921 18.0222L16.4591 18.6314L16.438 18.6436L13.4666 16.902L13.456 18.1273L15.4029 19.2615L13.4155 20.4483L1.7973 13.5762L13.4349 6.61831L25.2344 13.4519ZM25.2344 12.2266L13.4401 5.31075L1.76561 12.2196V2.9897L13.5 1.76442L25.2344 2.9897V12.2266Z"/>
</symbol><symbol id="logo-title" viewBox="0 0 129 25">
  <path d="M1.62387 22.0513C0.48969 20.3682 -0.0733255 18.3503 0.0213619 16.3077V7.79487C-0.115985 5.73031 0.411776 3.67661 1.52371 1.94872C2.62543 0.615385 4.32809 0 6.832 0C9.33592 0 10.9384 0.615385 11.94 1.74359C13.0274 3.17255 13.5622 4.96181 13.4423 6.76923V8.82051H8.53466V6.46154C8.5743 5.76385 8.47198 5.06533 8.23419 4.41026C8.10709 4.14583 7.90565 3.9264 7.65576 3.78018C7.40588 3.63395 7.11899 3.56763 6.832 3.58974C6.13091 3.58974 5.63013 3.79487 5.42981 4.30769C5.20324 5.03643 5.10158 5.79984 5.12934 6.5641V17.5385C5.07645 18.2799 5.2146 19.0227 5.52997 19.6923C5.73028 20.2051 6.23106 20.4103 6.93216 20.4103C7.63326 20.4103 8.03388 20.2051 8.23419 19.6923C8.46191 18.9992 8.56375 18.2692 8.53466 17.5385V15.0769H13.4423V17.1282C13.5442 18.9651 13.0124 20.7803 11.94 22.2564C10.9384 23.4872 9.23576 24.1026 6.832 24.1026C4.42825 24 2.62543 23.3846 1.62387 22.0513Z" fill="#111111"/>
  <path d="M19.3515 0.307739H25.0604L29.267 23.6924H24.6598L23.8586 18.7693H20.5534L19.7522 23.6924H15.0448L19.3515 0.307739ZM23.4579 15.6924L22.2561 6.56415L21.0542 15.6924H23.4579Z" fill="#111111"/>
  <path d="M32.7725 4.20518H29.3672V0.307739H41.2858V4.10261H37.8805V23.6924H32.7725V4.20518Z" fill="#111111"/>
  <path d="M50.4001 0.307739H59.2139V2.76928H53.5049V10.4616H58.1121V12.8206H53.5049V21.4359H59.2139V23.7949H50.2999V0.307739H50.4001Z" fill="#111111"/>
  <path d="M61.8179 0.307739H64.0213L70.5315 15.7949V0.307739H73.1356V23.6924H71.1324L64.5221 7.69235V23.6924H61.8179V0.307739Z" fill="#111111"/>
  <path d="M76.1403 0.307739H84.954V2.76928H79.2451V10.4616H83.8523V12.8206H79.2451V21.4359H84.954V23.7949H76.1403V0.307739Z" fill="#111111"/>
  <path d="M87.5581 0.307722H92.1653C93.9777 0.179519 95.7788 0.685833 97.2733 1.74362C98.375 2.6667 98.8758 4.30772 98.8758 6.46157C98.8758 9.43593 97.9744 11.2821 96.0714 11.8975L99.2764 23.5898H96.1716L93.1669 12.6154H90.663V23.5898H87.4579V0.307722H87.5581ZM91.965 10.359C92.9975 10.4461 94.0267 10.1554 94.8695 9.53849C95.4705 9.02567 95.7709 8.00003 95.7709 6.46157C95.7987 5.69731 95.697 4.9339 95.4705 4.20516C95.245 3.68224 94.8579 3.24976 94.3687 2.97439C93.6789 2.65249 92.9216 2.5115 92.1653 2.56413H90.7631V10.2564H91.965V10.359Z" fill="#111111"/>
  <path d="M102.882 21.9487C101.841 20.1554 101.352 18.0821 101.48 15.9999V8.20507C101.455 6.71875 101.624 5.23567 101.981 3.79481C102.316 2.71811 102.984 1.78218 103.884 1.12815C105.002 0.450275 106.292 0.128917 107.589 0.20507C109.693 0.20507 111.195 0.71789 112.096 1.8461C113.133 3.33582 113.629 5.14977 113.499 6.9743V7.79481H110.494V7.07687C110.498 6.21789 110.431 5.36008 110.294 4.51276C110.209 3.97732 109.921 3.49792 109.492 3.17943C108.929 2.80104 108.261 2.62099 107.589 2.66661C106.871 2.61949 106.16 2.83785 105.586 3.28199C105.351 3.48529 105.158 3.73569 105.02 4.01787C104.883 4.30004 104.802 4.60805 104.785 4.92302C104.653 5.83993 104.586 6.76543 104.585 7.69225V16.4102C104.511 17.7384 104.716 19.0674 105.186 20.3076C105.586 21.1281 106.388 21.4358 107.589 21.4358C108.064 21.4964 108.545 21.4119 108.973 21.1929C109.401 20.9739 109.756 20.6302 109.993 20.2051C110.522 18.9081 110.762 17.5064 110.694 16.1025V14.4615H107.79V12.1025H113.599V23.6923H111.596L111.295 21.0256C111.033 21.9193 110.486 22.6975 109.742 23.2364C108.998 23.7753 108.099 24.0441 107.189 23.9999C106.361 24.0498 105.534 23.8885 104.783 23.5304C104.031 23.1724 103.378 22.6289 102.882 21.9487V21.9487Z" fill="#111111"/>
  <path d="M120.009 15.4872L115.101 0.410278H118.106L121.611 11.6923L125.017 0.410278H128.021L123.114 15.4872V23.6923H120.109V15.4872H120.009Z" fill="#111111"/>
</symbol><symbol id="mail" viewBox="0 0 19 14">
<path fill-rule="evenodd" clip-rule="evenodd" d="M4.88758e-05 13.9999L4.88758e-05 5.99994H1.30005L1.30005 13.9999H4.88758e-05Z"/>
<path fill-rule="evenodd" clip-rule="evenodd" d="M17 13.9999V5.99994H18.3V13.9999H17Z"/>
<path fill-rule="evenodd" clip-rule="evenodd" d="M18 14H0V12.7H18V14Z"/>
<path fill-rule="evenodd" clip-rule="evenodd" d="M18 1.99995H0V0.699951H18V1.99995Z"/>
<path fill-rule="evenodd" clip-rule="evenodd" d="M9.00002 8.85302L16.7 2.86413V2.29994L1.3 2.29994V2.86413L9.00002 8.85302ZM0 3.49994L9.00002 10.4999L18 3.49994V0.999939L0 0.999939V3.49994Z"/>
</symbol><symbol id="menu-btn-close" viewBox="0 0 20 20">
  <line y1="-0.75" x2="24.7577" y2="-0.75" transform="matrix(0.686589 -0.727046 0.686589 0.727046 2.00171 20)" stroke="black" stroke-width="1.5"/>
  <line y1="-0.75" x2="24.7577" y2="-0.75" transform="matrix(0.686589 0.727046 -0.686589 0.727046 1 2)" stroke="black" stroke-width="1.5"/>
</symbol><symbol id="menu-btn-open" viewBox="0 0 24 18">
  <line y1="1.25" x2="24" y2="1.25" stroke="black" stroke-width="1.5"/>
  <line y1="9.25" x2="24" y2="9.25" stroke="black" stroke-width="1.5"/>
  <line y1="17.25" x2="24" y2="17.25" stroke="black" stroke-width="1.5"/>
</symbol><symbol id="phone" viewBox="0 0 20 20">
  <path fill-rule="evenodd" clip-rule="evenodd" d="M8.10764 13.2471V19.4685C8.10916 19.5437 8.09379 19.6183 8.06266 19.6868C8.03154 19.7553 7.98546 19.8159 7.92784 19.864C7.87022 19.9122 7.80253 19.9468 7.72979 19.9652C7.65706 19.9835 7.58113 19.9852 7.50764 19.9702H2.90764C2.50895 19.9726 2.11406 19.8923 1.74782 19.7341C1.38157 19.576 1.05189 19.3436 0.779516 19.0514C0.507138 18.7592 0.297953 18.4137 0.165117 18.0365C0.0322798 17.6592 -0.021335 17.2585 0.00764402 16.8595V2.9117C0.0205594 2.51631 0.111014 2.12735 0.273837 1.76707C0.436659 1.40678 0.668656 1.08223 0.956562 0.811969C1.24447 0.541711 1.58264 0.331045 1.95174 0.192018C2.32084 0.0529909 2.71362 -0.0116718 3.10764 0.00172728H7.50764C7.66924 0.0250598 7.82088 0.0940666 7.94484 0.200681C8.0688 0.307296 8.15995 0.447114 8.20764 0.603791V6.92546C8.19609 7.08129 8.12917 7.22779 8.01905 7.33828C7.90894 7.44878 7.76294 7.51593 7.60764 7.52752H3.20764C3.21279 7.20978 3.34088 6.9065 3.56481 6.68179C3.78875 6.45709 4.09099 6.32856 4.40764 6.3234H6.80764V1.3062H2.90764C2.44521 1.32449 2.00832 1.52379 1.69055 1.8614C1.37279 2.19902 1.19944 2.64808 1.20764 3.11239V17.1605C1.21911 17.3983 1.27755 17.6314 1.37958 17.8463C1.48162 18.0612 1.6252 18.2536 1.80199 18.4123C1.97878 18.571 2.18525 18.6929 2.40939 18.7709C2.63354 18.8488 2.87089 18.8813 3.10764 18.8664H6.80764V13.8492H4.30764C3.99099 13.844 3.68875 13.7155 3.46481 13.4908C3.24088 13.2661 3.11279 12.9628 3.10764 12.6451H7.50764C7.66294 12.6567 7.80894 12.7238 7.91905 12.8343C8.02917 12.9448 8.09609 13.0913 8.10764 13.2471ZM9.40765 9.43402H17.9077L15.8077 7.42714L16.7077 6.52405L19.8077 9.63471C19.905 9.76498 19.9577 9.92342 19.9577 10.0863C19.9577 10.2491 19.905 10.4075 19.8077 10.5378L16.7077 13.6485L15.8077 12.7454L17.9077 10.6381H9.40765V9.43402Z"/>
</symbol><symbol id="pin" viewBox="0 0 90 105">
  <path fill-rule="evenodd" clip-rule="evenodd" d="M86.0559 63.4504C88.59 57.8202 90 51.5748 90 45C90 20.1472 69.8528 0 45 0C20.1472 0 0 20.1472 0 45C0 69.8528 20.1472 90 45 90C45.3342 90 45.6675 89.9964 46 89.9891V104.082L46.8241 103.381C48.2323 102.182 49.9613 100.717 51.8733 99.0975L51.8864 99.0863C60.5848 91.7166 73.0605 81.1466 76.3536 77.8536C78.3859 75.8212 82.1635 71.0347 84.4358 66.9951C85.0055 65.9824 85.4867 65.0058 85.8227 64.1232C85.9096 63.895 85.9879 63.6702 86.0559 63.4504Z" fill="white"/>
  <path d="M67.8825 33.6598C66.1585 29.5626 63.3821 25.9852 59.83 23.284C56.2778 20.5827 52.074 18.852 47.6374 18.2643C43.2008 17.6766 38.6864 18.2525 34.5441 19.9345C30.4017 21.6165 26.7762 24.3459 24.0287 27.8507C21.2812 31.3556 19.5077 35.5134 18.885 39.9098C18.2622 44.3063 18.812 48.7879 20.4795 52.9079C22.147 57.028 24.874 60.6426 28.3887 63.3917C31.9034 66.1407 36.083 67.9281 40.5111 68.5757C39.9311 66.5026 39.3411 64.2112 38.8211 61.781C40.3339 62.7544 41.9262 63.6005 43.5813 64.3104V64.3104C43.5813 64.3104 43.7013 66.453 43.8613 68.8435C45.6496 68.8741 47.4362 68.7178 49.1916 68.3773C49.1462 68.128 49.1462 67.8727 49.1916 67.6235C49.4816 65.7685 50.2816 62.4257 50.4416 60.2733C51.595 59.2032 52.5734 57.9617 53.3418 56.5932V56.5932L53.2818 57.0296C52.7317 61.2553 51.5817 65.7685 50.8817 67.0184C50.655 67.4321 50.3761 67.8154 50.0516 68.1591C53.6716 67.3168 57.0636 65.7036 59.9924 63.4315C62.9212 61.1594 65.3168 58.2826 67.013 55.0007C68.7093 51.7188 69.6656 48.1102 69.8158 44.4252C69.9659 40.7401 69.3062 37.0668 67.8825 33.6598V33.6598ZM66.4124 37.4192C65.9724 37.8457 65.0624 38.1334 64.9123 36.8439C64.7623 35.5544 64.7223 34.6517 64.7223 34.6517C64.7223 34.6517 62.7922 31.2494 62.0722 31.2097C61.3522 31.17 56.2419 34.6517 54.8919 36.1694C53.7218 37.4489 53.4918 37.3597 53.4918 39.6113C53.4918 41.3075 53.7118 47.7154 53.5918 52.6156L45.4414 54.768C42.8796 55.4973 40.2744 56.0671 37.641 56.4742L36.6409 50.6912H36.5009L33.9308 37.6275C33.9308 37.6275 30.1206 36.1991 28.7206 35.8123C28.0632 35.527 27.3372 35.4342 26.6284 35.545C25.9196 35.6557 25.2575 35.9653 24.7204 36.4372C24.1723 36.9131 23.7342 37.5006 23.4356 38.1596C23.1371 38.8186 22.9852 39.5336 22.9903 40.2561C23.2017 40.7171 23.3626 41.1993 23.4703 41.6944C23.5203 42.1705 22.2702 42.1209 21.4702 42.1209C20.6702 42.1209 20.5502 40.6926 21.1802 39.0162C21.6717 37.7272 22.2809 36.4854 23.0003 35.3064C23.5413 34.2532 24.2392 33.2868 25.0704 32.4397C25.0704 32.4397 25.2104 32.1024 26.3204 32.2016C27.4305 32.3008 33.6008 32.6282 33.6008 32.6282L33.6508 30.3765C40.3575 29.458 47.1216 29.0138 53.8918 29.0473C53.8918 29.6524 53.8918 30.2574 53.8918 30.8625C56.4562 29.7018 59.2175 29.0288 62.0322 28.8787C62.1828 28.8749 62.332 28.9083 62.4664 28.9758C62.6008 29.0433 62.7162 29.1429 62.8022 29.2655C63.1423 29.692 65.2124 32.2413 65.4524 32.6083C66.1246 33.5613 66.7359 34.5552 67.2825 35.5841C67.0951 36.2356 66.8012 36.8522 66.4124 37.4093V37.4192Z" fill="#FDC305"/>
  <path d="M64.4628 31.3487C64.9329 31.9438 65.3429 32.4696 65.4629 32.6283C66.1351 33.5812 66.7464 34.5751 67.293 35.6041C67.1027 36.2342 66.8124 36.8302 66.4329 37.3697C65.9929 37.7962 65.0829 38.0839 64.9329 36.7944C64.7829 35.5049 64.7229 34.6518 64.7229 34.6518C64.7229 34.6518 62.7928 31.2495 62.0727 31.2098C61.3527 31.1701 56.2424 34.6518 54.8924 36.1695C53.7223 37.449 53.4923 37.3598 53.4923 39.6115C53.4923 41.0993 53.6623 46.2078 53.6223 50.7508C55.4324 50.9492 58.0925 51.4452 58.8926 52.6157C58.8926 52.6157 58.6026 45.4936 66.703 49.2233C66.703 49.2233 66.983 39.5123 78.1635 42.002C74.3628 37.5759 69.7035 33.953 64.4628 31.3487V31.3487Z" fill="#F06351"/>
  <path d="M53.9323 29.0473C53.9729 23.5508 53.5043 18.0622 52.5322 12.6507C52.5322 12.6507 52.3822 11.3612 51.6622 12.4127C51.068 13.6697 50.6636 15.0066 50.4621 16.3804C46.1871 16.1083 41.896 16.2212 37.6415 16.7177C36.8214 13.9898 35.4214 12.7499 34.7513 13.0773C34.0813 13.4046 34.0013 16.3308 34.0013 16.3308L33.6713 30.3765C40.3846 29.4571 47.1554 29.0129 53.9323 29.0473V29.0473Z" fill="#F06351"/>
  <path d="M53.3515 56.5933C53.4815 55.5319 53.5515 54.1234 53.5915 52.566L45.4415 54.7185C42.8809 55.4645 40.2758 56.0509 37.6415 56.4742L38.7515 61.4339C38.7515 61.543 38.7515 61.6521 38.8215 61.7612C40.3342 62.7346 41.9265 63.5807 43.5815 64.2907C46.0002 63.1438 48.3038 61.7721 50.4615 60.194V60.2535C51.6096 59.1888 52.5845 57.954 53.3515 56.5933V56.5933Z" fill="#E55645"/>
  <path d="M40.0016 25.9426C39.9516 25.8434 41.0016 26.6171 41.4116 26.8551C41.8216 27.0932 42.0216 27.2718 42.0216 27.4404C42.0216 27.609 41.7616 27.7776 41.4016 27.7776C41.0416 27.7776 40.4816 27.6586 40.4016 27.5197C40.3216 27.3809 41.0016 27.5197 41.3416 27.5197H41.6316C41.0159 27.073 40.4672 26.542 40.0016 25.9426Z" fill="black"/>
  <path d="M47.502 26.0517C47.502 26.0517 46.502 27.3213 46.412 27.3809C46.322 27.4404 46.2419 27.7181 46.6019 27.6685C47.0152 27.6073 47.4231 27.5145 47.8219 27.3908C47.9319 27.3313 47.892 27.1924 47.702 27.2122C47.512 27.2321 47.022 27.2618 46.702 27.3213L47.5519 26.0616C47.5519 26.0616 47.582 25.9426 47.502 26.0517Z" fill="black"/>
  <path d="M44.3617 32.1124C44.8253 31.9099 45.2084 31.5612 45.4517 31.1205C45.7317 30.4658 45.4517 30.2179 45.0117 30.1286C44.4064 30.019 43.7817 30.1394 43.2617 30.4658C42.8717 30.8329 42.9217 31.19 43.2617 31.4578C43.5995 31.7205 43.9691 31.9405 44.3617 32.1124V32.1124Z" fill="black"/>
  <path d="M44.0016 33.3623C43.8868 33.5873 43.7308 33.7891 43.5416 33.9575C43.2568 34.1848 42.9067 34.3167 42.5416 34.3344C41.991 34.388 41.4405 34.232 41.0016 33.898C40.8 33.781 40.6206 33.6299 40.4716 33.4516C40.3715 33.3435 40.2486 33.2589 40.1116 33.2036C40.1116 33.2036 40.8616 37.2804 42.6816 37.9351C44.5016 38.5898 44.8416 37.1813 44.8916 36.8043C44.9525 35.6754 44.6666 34.5547 44.0716 33.5905C44.0716 33.2929 44.0516 33.4913 44.0016 33.3623Z" fill="#F06351"/>
  <path d="M42.3015 34.493C41.8335 34.4263 41.384 34.2662 40.9801 34.0224C40.5763 33.7786 40.2263 33.4562 39.9515 33.0746C39.9269 33.0473 39.9133 33.012 39.9133 32.9754C39.9133 32.9388 39.9269 32.9035 39.9515 32.8762C39.9646 32.863 39.9801 32.8525 39.9973 32.8454C40.0145 32.8382 40.0329 32.8345 40.0515 32.8345C40.0702 32.8345 40.0886 32.8382 40.1058 32.8454C40.1229 32.8525 40.1385 32.863 40.1515 32.8762C40.399 33.2206 40.7129 33.5127 41.0751 33.7358C41.4374 33.9589 41.8406 34.1084 42.2615 34.1756C42.5945 34.1508 42.9168 34.0479 43.2019 33.8755C43.487 33.7031 43.7268 33.466 43.9015 33.1837L44.0415 32.9952L44.1415 33.2134C44.1415 33.2134 44.5215 33.9673 45.1415 34.007C45.7615 34.0467 46.2015 33.5904 46.7715 32.7274C46.7927 32.6958 46.8257 32.6739 46.8632 32.6665C46.9007 32.659 46.9397 32.6667 46.9715 32.6877C47.0034 32.7088 47.0254 32.7415 47.0329 32.7787C47.0404 32.8159 47.0327 32.8545 47.0115 32.8861C46.3449 33.8582 45.7149 34.3244 45.1215 34.2847C44.8922 34.2546 44.6726 34.1739 44.4788 34.0486C44.285 33.9233 44.1219 33.7566 44.0015 33.5606C43.8059 33.8316 43.5518 34.056 43.2577 34.2172C42.9636 34.3785 42.6369 34.4728 42.3015 34.493Z" fill="black"/>
  <path d="M44.2616 47.8445C46.3327 47.8445 48.0116 46.1791 48.0116 44.1248C48.0116 42.0704 46.3327 40.405 44.2616 40.405C42.1905 40.405 40.5116 42.0704 40.5116 44.1248C40.5116 46.1791 42.1905 47.8445 44.2616 47.8445Z" fill="#FDC305"/>
  <path d="M49.2316 41.0993L46.1016 42.3988L47.2516 36.8142L39.7516 46.4954L42.8816 45.196L41.7316 50.7905L49.2316 41.0993ZM41.8416 44.8984L46.0016 39.5321L45.1916 43.4998L47.1916 42.6864L43.0016 48.0627L43.8116 44.095L41.8416 44.8984Z" fill="#111111"/>
  <path d="M40.4415 43.4402C41.0601 43.4402 41.5615 42.9428 41.5615 42.3292C41.5615 41.7157 41.0601 41.2183 40.4415 41.2183C39.823 41.2183 39.3215 41.7157 39.3215 42.3292C39.3215 42.9428 39.823 43.4402 40.4415 43.4402Z" fill="#111111"/>
  <path d="M46.9619 47.4675C47.3982 47.4675 47.7519 47.1167 47.7519 46.6839C47.7519 46.2511 47.3982 45.9003 46.9619 45.9003C46.5256 45.9003 46.1719 46.2511 46.1719 46.6839C46.1719 47.1167 46.5256 47.4675 46.9619 47.4675Z" fill="#111111"/>
  <path d="M47.9219 45.315C48.1152 45.315 48.2719 45.1595 48.2719 44.9678C48.2719 44.776 48.1152 44.6206 47.9219 44.6206C47.7286 44.6206 47.5719 44.776 47.5719 44.9678C47.5719 45.1595 47.7286 45.315 47.9219 45.315Z" fill="#111111"/>
  <path d="M53.8822 30.8427C52.077 32.4568 50.3768 34.183 48.792 36.0107C47.2133 37.8252 45.4318 39.4558 43.4817 40.8711C43.2617 40.3454 41.8516 39.3634 41.8516 39.3634C41.8516 39.3634 38.7115 37.2307 36.6514 35.5544C35.5377 34.6343 34.4886 33.6401 33.5112 32.5786L31.5111 32.4695C34.3983 36.6526 38.628 39.7432 43.5117 41.2381C44.3717 41.0993 46.7919 39.3832 48.602 37.9846C50.7434 36.1782 52.7489 34.2189 54.6022 32.1223C55.1004 31.535 55.4867 30.8628 55.7423 30.1384C54.6023 30.5154 53.8822 30.8427 53.8822 30.8427Z" fill="#F06351"/>
  <path d="M33.9313 37.6275C33.9313 37.6275 30.1211 36.1991 28.721 35.8123C28.0636 35.527 27.3377 35.4343 26.6289 35.545C25.9201 35.6557 25.258 35.9653 24.7208 36.4372C24.1728 36.9131 23.7346 37.5006 23.4361 38.1596C23.1375 38.8186 22.9856 39.5337 22.9907 40.2561C23.2021 40.7172 23.3631 41.1993 23.4708 41.6944C23.5208 42.1706 22.2707 42.121 21.4707 42.121C20.6706 42.121 20.5506 40.6926 21.1807 39.0162C21.6722 37.7272 22.2814 36.4854 23.0007 35.3064C17.5505 38.1235 8 44.6305 8 44.6305C10.7318 44.4671 13.4729 44.5468 16.1904 44.8686C21.4407 45.3943 21.1907 49.5009 21.1907 49.5009C23.0373 48.996 24.9192 48.6279 26.8209 48.3999C28.941 48.261 29.091 50.5028 29.091 50.5028L29.6211 54.3316C30.4259 53.4679 31.3134 52.6839 32.2712 51.9907C33.5057 51.0104 35.0776 50.5477 36.6514 50.7012V50.7012L33.9313 37.6275Z" fill="#F06351"/>
</symbol><symbol id="plus" viewBox="0 0 30 30">
  <path fill-rule="evenodd" clip-rule="evenodd" d="M14 30L14 0L16 0L16 30H14Z"/>
  <path fill-rule="evenodd" clip-rule="evenodd" d="M0 14L30 14V16L0 16V14Z"/>
</symbol><symbol id="present" viewBox="0 0 58 62">
  <path d="M54.0155 28.7131H4.03091C2.27652 28.7131 0.849365 27.2955 0.849365 25.5528V16.0846C0.849365 14.3419 2.27652 12.9237 4.03091 12.9237H54.0149C55.7687 12.9237 57.1952 14.3419 57.1952 16.0846V25.5534C57.1958 27.2955 55.7693 28.7131 54.0155 28.7131ZM4.03091 15.3459C3.62751 15.3459 3.28687 15.6843 3.28687 16.0846V25.5534C3.28687 25.9603 3.6208 26.2915 4.03091 26.2915H54.0149C54.4244 26.2915 54.7577 25.9603 54.7577 25.5534V16.0846C54.7577 15.6837 54.4171 15.3459 54.0149 15.3459H4.03091Z"/>
  <path d="M47.0447 61.1492H10.9989C7.62176 61.1492 4.87408 58.4194 4.87408 55.063V27.502C4.87408 26.8335 5.42008 26.2909 6.09283 26.2909C6.76558 26.2909 7.31158 26.8335 7.31158 27.502V55.063C7.31158 57.0836 8.96604 58.7271 10.9989 58.7271H47.0447C49.0769 58.7271 50.7308 57.0836 50.7308 55.063V27.502C50.7308 26.8335 51.2768 26.2909 51.9495 26.2909C52.6223 26.2909 53.1683 26.8335 53.1683 27.502V55.063C53.1683 58.4194 50.4212 61.1492 47.0447 61.1492Z"/>
  <path d="M29.0225 61.1492C28.3497 61.1492 27.8037 60.6072 27.8037 59.9381V27.502C27.8037 26.8335 28.3497 26.2909 29.0225 26.2909C29.6952 26.2909 30.2412 26.8335 30.2412 27.502V59.9375C30.2412 60.6072 29.6958 61.1492 29.0225 61.1492Z"/>
  <path d="M13.8112 15.3416C9.99654 13.2876 8.57304 8.53296 10.6382 4.7417C12.7022 0.95225 17.4864 -0.462889 21.3029 1.58746C27.1169 4.71687 30.2564 13.4475 30.3868 13.8175L28.0877 14.621C28.0584 14.5387 25.1255 6.39965 20.1432 3.71773C17.5077 2.30199 14.2061 3.27933 12.782 5.89464C11.3567 8.51237 12.339 11.7944 14.9733 13.2119L13.8112 15.3416Z"/>
  <path d="M44.2312 15.3416L43.0709 13.2113C44.3476 12.524 45.2781 11.385 45.6925 10.0038C46.1062 8.62195 45.9533 7.16261 45.2616 5.89522C44.5718 4.62662 43.4262 3.70258 42.0362 3.29142C40.6456 2.88026 39.1783 3.03164 37.9022 3.71771C32.92 6.39903 29.9871 14.538 29.9578 14.6204L27.6586 13.8168C27.789 13.4469 30.9279 4.71624 36.742 1.58744C38.5896 0.593146 40.7181 0.373942 42.7315 0.96979C44.7467 1.56503 46.4061 2.90508 47.406 4.74168C48.4072 6.57766 48.6284 8.69159 48.0288 10.6941C47.4286 12.696 46.08 14.3461 44.2312 15.3416Z"/>
  <path d="M51.9495 44.9317H6.09283C5.42008 44.9317 4.87408 44.3891 4.87408 43.7206C4.87408 43.0521 5.42008 42.5095 6.09283 42.5095H51.9495C52.6223 42.5095 53.1683 43.0521 53.1683 43.7206C53.1683 44.3891 52.6229 44.9317 51.9495 44.9317Z"/>
</symbol><symbol id="tm" viewBox="0 0 20 18">
  <path fill-rule="evenodd" clip-rule="evenodd" d="M19.4608 0.152905C19.6393 0.302216 19.7255 0.534898 19.6872 0.764481L17.0611 16.5214C17.0244 16.7411 16.8789 16.9273 16.6745 17.0159C16.47 17.1045 16.2346 17.0833 16.0493 16.9597L8.17082 11.7074C8.01771 11.6054 7.91447 11.4437 7.88624 11.2619C7.858 11.08 7.90738 10.8947 8.02233 10.751L10.633 7.48773L6.27303 10.3944C6.077 10.525 5.82597 10.5407 5.61524 10.4353L0.362931 7.80915C0.127693 7.69153 -0.0146529 7.44488 0.00119976 7.18235C0.0170525 6.91983 0.188044 6.6921 0.435726 6.60364L18.8188 0.0382579C19.038 -0.0400244 19.2822 0.00359465 19.4608 0.152905ZM2.32626 7.32275L5.86168 9.09046L13.4231 4.0495C13.6925 3.86994 14.0525 3.91349 14.2712 4.1521C14.49 4.3907 14.5022 4.75314 14.3 5.00591L9.49502 11.0121L15.9328 15.3039L18.2083 1.65058L2.32626 7.32275Z"/>
</symbol><symbol id="vk" viewBox="0 0 27 17">
  <path d="M0 2.33876C0 1.48373 0.515103 1.02268 1.54531 0.955621L5.51515 0.980769C5.78158 0.980769 5.95921 1.10651 6.04802 1.35799C6.45655 2.61538 6.91392 3.70094 7.42014 4.61465C7.92637 5.52835 8.58801 6.58038 9.40507 7.77071C9.47611 7.9216 9.59157 7.99704 9.75143 7.99704C9.87576 7.99704 9.97345 7.93836 10.0445 7.82101L10.1244 7.54438L10.1511 3.19379C10.1511 2.89201 10.0756 2.69083 9.92461 2.59024C9.77363 2.48964 9.49388 2.4142 9.08535 2.36391C8.76563 2.31361 8.60577 2.12919 8.60577 1.81065C8.60577 1.74359 8.61465 1.69329 8.63241 1.65976C9.00542 0.57002 10.0711 0.0251479 11.8296 0.0251479L13.3216 0C13.9966 0 14.5561 0.15927 15.0001 0.477811C15.4442 0.796351 15.6662 1.29931 15.6662 1.98669V7.69527C15.7906 7.77909 15.906 7.82101 16.0126 7.82101C16.279 7.82101 16.5099 7.67012 16.7053 7.36834C18.6592 4.78649 19.716 3.05966 19.8759 2.18787C19.8759 2.1711 19.8936 2.12919 19.9291 2.06213C20.0535 1.81065 20.2577 1.5927 20.5419 1.40828C20.8261 1.22387 21.0748 1.09813 21.288 1.03107C21.359 0.997535 21.4389 0.980769 21.5277 0.980769H25.6574L25.9239 1.00592C26.2791 1.00592 26.5544 1.16519 26.7498 1.48373C26.8209 1.58432 26.8697 1.69329 26.8964 1.81065C26.923 1.92801 26.9408 2.04536 26.9496 2.16272C26.9585 2.28008 26.963 2.34714 26.963 2.36391V2.53994C26.8386 3.22732 26.5233 3.9608 26.0171 4.74038C25.5109 5.51997 24.867 6.36243 24.0855 7.26775C23.304 8.17308 22.8155 8.76825 22.6201 9.05326C22.4603 9.25444 22.3803 9.43886 22.3803 9.60651C22.3803 9.74063 22.4514 9.89152 22.5935 10.0592L26.4834 14.6864C26.6965 14.9546 26.8031 15.248 26.8031 15.5666C26.8031 15.9522 26.6432 16.2707 26.3235 16.5222C26.0038 16.7737 25.6219 16.9162 25.1779 16.9497L24.7249 16.9749H20.6752C20.6574 16.9749 20.6219 16.979 20.5686 16.9874C20.5153 16.9958 20.4798 17 20.462 17C20.0712 17 19.7071 16.8407 19.3696 16.5222C19.2453 16.3881 18.4105 15.3989 16.8652 13.5547C16.7764 13.4374 16.652 13.3284 16.4922 13.2278C16.4211 13.4961 16.3279 13.8817 16.2124 14.3846C16.097 14.8876 16.0126 15.248 15.9593 15.466L15.8794 15.8935C15.7018 16.4803 15.3287 16.8323 14.7604 16.9497L14.3874 16.9749H11.7763C10.3021 16.9749 8.83224 16.3378 7.36686 15.0636C5.90148 13.7894 4.58264 12.1423 3.41034 10.122C2.23803 8.10182 1.14566 5.75049 0.133216 3.06805C0.0444054 2.8501 0 2.607 0 2.33876ZM16.0126 8.85207C15.6396 8.85207 15.3021 8.75567 15.0001 8.56287C14.6982 8.37007 14.5472 8.10602 14.5472 7.77071V1.98669C14.5472 1.65138 14.4584 1.41248 14.2808 1.26997C14.1032 1.12747 13.7923 1.05621 13.3483 1.05621L11.8296 1.10651C11.0658 1.10651 10.4886 1.23225 10.0978 1.48373C10.8793 1.8358 11.2701 2.40582 11.2701 3.19379V7.61982C11.2346 8.03895 11.0569 8.38683 10.7372 8.66346C10.4175 8.94009 10.0623 9.0784 9.6715 9.0784C9.13863 9.0784 8.7301 8.83531 8.44591 8.34911C7.06046 6.37081 6.03025 4.4931 5.35529 2.71598L5.1155 2.06213L1.57195 2.03698C1.34104 2.03698 1.21227 2.04956 1.18562 2.0747C1.15898 2.09985 1.14566 2.1711 1.14566 2.28846C1.14566 2.43935 1.16342 2.59862 1.19895 2.76627L1.75845 4.17456C3.25048 7.81262 4.87127 10.6795 6.62085 12.7751C8.37042 14.8708 10.0889 15.9186 11.7763 15.9186H14.4406C14.5472 15.9186 14.6271 15.8893 14.6804 15.8306C14.7337 15.7719 14.7781 15.6588 14.8136 15.4911L14.8669 15.2396L15.3732 13.0266C15.5152 12.7249 15.6396 12.5237 15.7462 12.4231C15.9415 12.2387 16.1725 12.1465 16.4389 12.1465C16.8652 12.1465 17.3003 12.3895 17.7444 12.8757L20.0091 15.5917C20.1512 15.8097 20.3022 15.9186 20.462 15.9186H24.8581C25.391 15.9186 25.6574 15.7929 25.6574 15.5414C25.6574 15.4576 25.6308 15.3738 25.5775 15.2899L21.7142 10.7382C21.4123 10.3861 21.2613 10.0089 21.2613 9.60651C21.2613 9.20414 21.4034 8.81854 21.6876 8.4497C21.9185 8.1144 22.367 7.55695 23.0331 6.77737C23.6992 5.99778 24.2809 5.26849 24.7782 4.5895C25.2756 3.9105 25.6042 3.29438 25.764 2.74112L25.8439 2.4142C25.8262 2.38067 25.8173 2.32618 25.8173 2.25074C25.8173 2.1753 25.8084 2.11243 25.7907 2.06213H21.6077C21.3412 2.16272 21.1281 2.31361 20.9682 2.51479L20.8084 2.9926C20.3643 4.14941 19.2009 5.93491 17.3181 8.34911C16.9451 8.68442 16.5099 8.85207 16.0126 8.85207Z"/>
</symbol><symbol id="yt" viewBox="0 0 24 19">
  <path d="M15.8509 8.79275L10.6145 5.30184C10.5159 5.23691 10.4016 5.19985 10.2837 5.19459C10.1657 5.18934 10.0486 5.21608 9.94459 5.27198C9.84061 5.32789 9.75369 5.41087 9.69302 5.51215C9.63236 5.61343 9.60022 5.72924 9.6 5.84729V12.8291C9.60013 12.9481 9.6327 13.0648 9.69421 13.1667C9.75572 13.2686 9.84384 13.3518 9.94909 13.4073C10.0524 13.4631 10.1691 13.4895 10.2864 13.4837C10.4037 13.478 10.5172 13.4402 10.6145 13.3746L15.8509 9.88366C15.9409 9.82395 16.0148 9.7429 16.0658 9.64772C16.1169 9.55255 16.1436 9.44621 16.1436 9.3382C16.1436 9.23019 16.1169 9.12385 16.0658 9.02868C16.0148 8.93351 15.9409 8.85245 15.8509 8.79275ZM10.9091 11.6073V7.06911L14.3127 9.3382L10.9091 11.6073ZM23.3891 3.04366C23.2942 2.67547 23.1131 2.33511 22.8609 2.05061C22.6086 1.76611 22.2924 1.54561 21.9382 1.40729C18.2182 -0.0217993 12.2509 1.91553e-05 12 1.91553e-05C11.7491 1.91553e-05 5.78182 -0.0217993 2.06182 1.40729C1.70764 1.54561 1.3914 1.76611 1.13914 2.05061C0.886889 2.33511 0.705838 2.67547 0.610909 3.04366C0.327273 4.11275 0 6.07638 0 9.3382C0 12.6 0.327273 14.5637 0.610909 15.6327C0.705838 16.0009 0.886889 16.3413 1.13914 16.6258C1.3914 16.9103 1.70764 17.1308 2.06182 17.2691C5.78182 18.6982 11.7491 18.6764 12 18.6764H12.0764C12.8291 18.6764 18.3927 18.6327 21.9382 17.2691C22.2924 17.1308 22.6086 16.9103 22.8609 16.6258C23.1131 16.3413 23.2942 16.0009 23.3891 15.6327C23.6727 14.5637 24 12.6 24 9.3382C24 6.07638 23.6727 4.11275 23.3891 3.04366ZM22.1236 15.3055C22.0807 15.472 21.999 15.6259 21.8853 15.7548C21.7715 15.8838 21.6289 15.984 21.4691 16.0473C17.9782 17.3891 12.0655 17.3673 12 17.3673C11.9345 17.3673 6.02182 17.3891 2.53091 16.0473C2.37107 15.984 2.22846 15.8838 2.11471 15.7548C2.00096 15.6259 1.91929 15.472 1.87636 15.3055C1.61455 14.3018 1.30909 12.4582 1.30909 9.3382C1.30909 6.2182 1.61455 4.37457 1.87636 3.37093C1.91929 3.20445 2.00096 3.05047 2.11471 2.92156C2.22846 2.79264 2.37107 2.69243 2.53091 2.62911C6.02182 1.28729 11.9345 1.30911 12 1.30911C12.0655 1.30911 17.9782 1.28729 21.4691 2.62911C21.6289 2.69243 21.7715 2.79264 21.8853 2.92156C21.999 3.05047 22.0807 3.20445 22.1236 3.37093C22.3855 4.37457 22.6909 6.2182 22.6909 9.3382C22.6909 12.4582 22.3855 14.3018 22.1236 15.3055Z"/>
</symbol></svg>