<svg viewBox="0 0 129 25" xmlns="http://www.w3.org/2000/svg">
  <path d="M1.62387 22.0513C0.48969 20.3682 -0.0733255 18.3503 0.0213619 16.3077V7.79487C-0.115985 5.73031 0.411776 3.67661 1.52371 1.94872C2.62543 0.615385 4.32809 0 6.832 0C9.33592 0 10.9384 0.615385 11.94 1.74359C13.0274 3.17255 13.5622 4.96181 13.4423 6.76923V8.82051H8.53466V6.46154C8.5743 5.76385 8.47198 5.06533 8.23419 4.41026C8.10709 4.14583 7.90565 3.9264 7.65576 3.78018C7.40588 3.63395 7.11899 3.56763 6.832 3.58974C6.13091 3.58974 5.63013 3.79487 5.42981 4.30769C5.20324 5.03643 5.10158 5.79984 5.12934 6.5641V17.5385C5.07645 18.2799 5.2146 19.0227 5.52997 19.6923C5.73028 20.2051 6.23106 20.4103 6.93216 20.4103C7.63326 20.4103 8.03388 20.2051 8.23419 19.6923C8.46191 18.9992 8.56375 18.2692 8.53466 17.5385V15.0769H13.4423V17.1282C13.5442 18.9651 13.0124 20.7803 11.94 22.2564C10.9384 23.4872 9.23576 24.1026 6.832 24.1026C4.42825 24 2.62543 23.3846 1.62387 22.0513Z" fill="#111111" />
  <path d="M19.3515 0.307739H25.0604L29.267 23.6924H24.6598L23.8586 18.7693H20.5534L19.7522 23.6924H15.0448L19.3515 0.307739ZM23.4579 15.6924L22.2561 6.56415L21.0542 15.6924H23.4579Z" fill="#111111" />
  <path d="M32.7725 4.20518H29.3672V0.307739H41.2858V4.10261H37.8805V23.6924H32.7725V4.20518Z" fill="#111111" />
  <path d="M50.4001 0.307739H59.2139V2.76928H53.5049V10.4616H58.1121V12.8206H53.5049V21.4359H59.2139V23.7949H50.2999V0.307739H50.4001Z" fill="#111111" />
  <path d="M61.8179 0.307739H64.0213L70.5315 15.7949V0.307739H73.1356V23.6924H71.1324L64.5221 7.69235V23.6924H61.8179V0.307739Z" fill="#111111" />
  <path d="M76.1403 0.307739H84.954V2.76928H79.2451V10.4616H83.8523V12.8206H79.2451V21.4359H84.954V23.7949H76.1403V0.307739Z" fill="#111111" />
  <path d="M87.5581 0.307722H92.1653C93.9777 0.179519 95.7788 0.685833 97.2733 1.74362C98.375 2.6667 98.8758 4.30772 98.8758 6.46157C98.8758 9.43593 97.9744 11.2821 96.0714 11.8975L99.2764 23.5898H96.1716L93.1669 12.6154H90.663V23.5898H87.4579V0.307722H87.5581ZM91.965 10.359C92.9975 10.4461 94.0267 10.1554 94.8695 9.53849C95.4705 9.02567 95.7709 8.00003 95.7709 6.46157C95.7987 5.69731 95.697 4.9339 95.4705 4.20516C95.245 3.68224 94.8579 3.24976 94.3687 2.97439C93.6789 2.65249 92.9216 2.5115 92.1653 2.56413H90.7631V10.2564H91.965V10.359Z" fill="#111111" />
  <path d="M102.882 21.9487C101.841 20.1554 101.352 18.0821 101.48 15.9999V8.20507C101.455 6.71875 101.624 5.23567 101.981 3.79481C102.316 2.71811 102.984 1.78218 103.884 1.12815C105.002 0.450275 106.292 0.128917 107.589 0.20507C109.693 0.20507 111.195 0.71789 112.096 1.8461C113.133 3.33582 113.629 5.14977 113.499 6.9743V7.79481H110.494V7.07687C110.498 6.21789 110.431 5.36008 110.294 4.51276C110.209 3.97732 109.921 3.49792 109.492 3.17943C108.929 2.80104 108.261 2.62099 107.589 2.66661C106.871 2.61949 106.16 2.83785 105.586 3.28199C105.351 3.48529 105.158 3.73569 105.02 4.01787C104.883 4.30004 104.802 4.60805 104.785 4.92302C104.653 5.83993 104.586 6.76543 104.585 7.69225V16.4102C104.511 17.7384 104.716 19.0674 105.186 20.3076C105.586 21.1281 106.388 21.4358 107.589 21.4358C108.064 21.4964 108.545 21.4119 108.973 21.1929C109.401 20.9739 109.756 20.6302 109.993 20.2051C110.522 18.9081 110.762 17.5064 110.694 16.1025V14.4615H107.79V12.1025H113.599V23.6923H111.596L111.295 21.0256C111.033 21.9193 110.486 22.6975 109.742 23.2364C108.998 23.7753 108.099 24.0441 107.189 23.9999C106.361 24.0498 105.534 23.8885 104.783 23.5304C104.031 23.1724 103.378 22.6289 102.882 21.9487V21.9487Z" fill="#111111" />
  <path d="M120.009 15.4872L115.101 0.410278H118.106L121.611 11.6923L125.017 0.410278H128.021L123.114 15.4872V23.6923H120.109V15.4872H120.009Z" fill="#111111" />
</svg>
