<svg viewBox="0 0 58 62" xmlns="http://www.w3.org/2000/svg">
  <path d="M54.0155 28.7131H4.03091C2.27652 28.7131 0.849365 27.2955 0.849365 25.5528V16.0846C0.849365 14.3419 2.27652 12.9237 4.03091 12.9237H54.0149C55.7687 12.9237 57.1952 14.3419 57.1952 16.0846V25.5534C57.1958 27.2955 55.7693 28.7131 54.0155 28.7131ZM4.03091 15.3459C3.62751 15.3459 3.28687 15.6843 3.28687 16.0846V25.5534C3.28687 25.9603 3.6208 26.2915 4.03091 26.2915H54.0149C54.4244 26.2915 54.7577 25.9603 54.7577 25.5534V16.0846C54.7577 15.6837 54.4171 15.3459 54.0149 15.3459H4.03091Z" />
  <path d="M47.0447 61.1492H10.9989C7.62176 61.1492 4.87408 58.4194 4.87408 55.063V27.502C4.87408 26.8335 5.42008 26.2909 6.09283 26.2909C6.76558 26.2909 7.31158 26.8335 7.31158 27.502V55.063C7.31158 57.0836 8.96604 58.7271 10.9989 58.7271H47.0447C49.0769 58.7271 50.7308 57.0836 50.7308 55.063V27.502C50.7308 26.8335 51.2768 26.2909 51.9495 26.2909C52.6223 26.2909 53.1683 26.8335 53.1683 27.502V55.063C53.1683 58.4194 50.4212 61.1492 47.0447 61.1492Z" />
  <path d="M29.0225 61.1492C28.3497 61.1492 27.8037 60.6072 27.8037 59.9381V27.502C27.8037 26.8335 28.3497 26.2909 29.0225 26.2909C29.6952 26.2909 30.2412 26.8335 30.2412 27.502V59.9375C30.2412 60.6072 29.6958 61.1492 29.0225 61.1492Z" />
  <path d="M13.8112 15.3416C9.99654 13.2876 8.57304 8.53296 10.6382 4.7417C12.7022 0.95225 17.4864 -0.462889 21.3029 1.58746C27.1169 4.71687 30.2564 13.4475 30.3868 13.8175L28.0877 14.621C28.0584 14.5387 25.1255 6.39965 20.1432 3.71773C17.5077 2.30199 14.2061 3.27933 12.782 5.89464C11.3567 8.51237 12.339 11.7944 14.9733 13.2119L13.8112 15.3416Z" />
  <path d="M44.2312 15.3416L43.0709 13.2113C44.3476 12.524 45.2781 11.385 45.6925 10.0038C46.1062 8.62195 45.9533 7.16261 45.2616 5.89522C44.5718 4.62662 43.4262 3.70258 42.0362 3.29142C40.6456 2.88026 39.1783 3.03164 37.9022 3.71771C32.92 6.39903 29.9871 14.538 29.9578 14.6204L27.6586 13.8168C27.789 13.4469 30.9279 4.71624 36.742 1.58744C38.5896 0.593146 40.7181 0.373942 42.7315 0.96979C44.7467 1.56503 46.4061 2.90508 47.406 4.74168C48.4072 6.57766 48.6284 8.69159 48.0288 10.6941C47.4286 12.696 46.08 14.3461 44.2312 15.3416Z" />
  <path d="M51.9495 44.9317H6.09283C5.42008 44.9317 4.87408 44.3891 4.87408 43.7206C4.87408 43.0521 5.42008 42.5095 6.09283 42.5095H51.9495C52.6223 42.5095 53.1683 43.0521 53.1683 43.7206C53.1683 44.3891 52.6229 44.9317 51.9495 44.9317Z" />
</svg>
