<svg width="16" height="16" fill="none" xmlns="http://www.w3.org/2000/svg"><rect width="16" height="16" rx="4" fill="#EEE"/><g class="words" fill="#111"><path d="M3.821 10.088a1.953 1.953 0 01-.342-1.243V7.05a1.984 1.984 0 01.337-1.254c.227-.286.614-.428 1.163-.427.548.002.919.127 1.113.376.236.309.352.69.325 1.076v.421H5.404v-.457a2.344 2.344 0 00-.032-.36.4.4 0 00-.115-.227.384.384 0 00-.28-.089.364.364 0 00-.368.18 1.284 1.284 0 00-.083.527v2.28c-.011.18.021.36.095.526a.359.359 0 00.355.175.337.337 0 00.343-.177c.059-.169.085-.347.075-.525v-.479h1.013v.415c.03.39-.076.78-.3 1.104-.216.263-.588.392-1.116.392-.529 0-.942-.143-1.17-.438zM7.733 5.474h1.173l.989 4.947H8.92l-.175-1.093h-.821l-.198 1.086h-.99l.997-4.94zm.903 3.232l-.312-1.988-.309 1.988h.621zM10.585 6.22H9.79v-.746h2.631v.745h-.785v4.202h-1.053l.002-4.202z"/></g></svg>